<?xml version="1.0" encoding="utf-8"?>
<!-- Generator: Adobe Illustrator 19.0.0, SVG Export Plug-In . SVG Version: 6.00 Build 0)  -->
<svg version="1.1" id="Layer_1" xmlns="http://www.w3.org/2000/svg" xmlns:xlink="http://www.w3.org/1999/xlink" x="0px" y="0px"
	 viewBox="0 0 600 600" style="enable-background:new 0 0 600 600;" xml:space="preserve">
<style type="text/css">
	.st0{fill:#E81D2C;}
	.st1{fill:#FFFFFF;}
</style>
<path id="XMLID_8665_" d="M184.1,335.6c-0.4,0.8-0.9,1.5-1.1,2.3c-2.3,9.9-4.8,19.7-6.8,29.6c-1.8,9-1.8,18.2,0.2,27.2
	c1,4.4,0.6,4.8-3.8,4.3c-3.4-0.3-6.8-0.5-10.2-0.9c-9.8-1.2-15.6-8.5-14.5-18.4c1.8-17,5.9-33.5,11.6-49.6c1.1-3,0.8-4.8-2.5-5.7
	c-2.1-0.6-4.1-1.6-6-2.5c-3.1-1.5-3.8-3.4-2.4-6.4c1.1-2.5,2.6-4.8,3.8-7.3c1.1-2.2,2.4-2.3,4.4-0.9c2,1.5,4.2,2.8,6.3,4.2
	c1.6,1.1,3,1,3.8-1.1c4.3-10.9,8.7-21.8,13-32.7c0.2-0.5,0.1-1.1,0.2-2.3c-2.4,1.2-4.4,2.1-6.4,3.2c-14.5,7.9-27.5,17.7-36.6,31.7
	c-3.4,5.3-6,11.2-8.7,17c-1.1,2.5-2.2,2.3-3.8,0.9c-10.9-9.3-13-22.2-5.5-34.8c4.1-6.9,9.3-12.9,16-17.4c7-4.6,13.7-10,21.1-13.9
	c8-4.2,16.4-7.6,25-10.3c8.7-2.7,17.7-4.8,26.7-5.7c15.3-1.4,30.2,0.4,43,10.1c4.3,3.3,5.8,8.3,6.7,13.5c0.8,4.8-0.3,9.4-2.5,13.6
	c-6.2,12-15.7,20.6-27.2,27.6c-7.1,4.3-14.4,7.8-22,10.9c-0.8,0.3-1.6,2.9-1.2,3.8c3.7,8.3,6.9,17,11.7,24.7
	c5.7,9,12.7,17.3,22.9,21.8c2.8,1.2,5.9,1.8,8.8,2.8c1,0.3,1.9,0.9,2.9,1.4c-0.6,1-1,2.3-1.9,3c-2.1,1.6-4.2,3.2-6.6,4.3
	c-9.3,4.5-18.7,8-29.2,3.6c-4.8-2-8.3-5.1-11.4-9c-7.8-10.1-11.7-21.8-14.6-34c-0.7-2.8-1.2-5.7-1.7-8.6
	C185,335.6,184.6,335.6,184.1,335.6z M196.3,305.5c0.2,0.2,0.4,0.4,0.6,0.6c0.9-0.4,1.8-0.7,2.6-1.2c2.5-1.4,5-2.7,7.3-4.4
	c6.3-4.6,12.7-9.2,18.6-14.3c4-3.5,3.6-8.8-0.2-12.4c-2.4-2.2-5.3-3.9-8.2-5.4c-0.7-0.4-2.8,0.6-3.3,1.5
	c-5.2,10.4-10.1,20.9-15.1,31.3C197.8,302.7,197,304.1,196.3,305.5z"/>
<path id="XMLID_8662_" d="M398.4,269c5.4-0.8,10.5-0.7,15.6,1.4c5.4,2.2,8.2,6.3,7.6,12.1c-0.4,3.5-1,7.1-2.4,10.3
	c-5.3,12.2-13.4,22.1-24.7,29.4c-1.5,1-3.7,3.7-3.3,4.4c1.1,2,3.1,4.5,5.1,4.8c2.9,0.5,6.6,0.1,9.2-1.3c7.3-3.9,11.6-10.7,15-18.1
	c0.3-0.6,0.4-1.3,0.3-2c-0.8-10.3,2-20.2,3.9-30.1c2.1-10.8,4.4-21.7,7.3-32.3c2.6-9.7,6.1-19.1,9.4-28.6c0.4-1.1,1.6-2.6,2.6-2.8
	c7.8-1.5,15.6-3,23.5-3.8c3.9-0.4,5,1.5,4,5.6c-1.3,5.9-2.6,11.9-4.6,17.6c-6.9,20.3-12.4,41-16.3,62.2c-0.8,4.6-1.8,9.2-1.9,13.8
	c0,2.4,1.1,6.1,2.9,7.1c2.8,1.5,4.2-2.4,5.2-4.2c4.4-8.4,8.5-16.9,12.3-25.6c2.4-5.3,6.4-7.9,11.2-6.2c4.3,1.5,6.5,5.1,4.9,9.4
	c-3.4,9.2-7.2,18.2-11,27.2c-1.2,2.8-3,5.4-4.2,8.2c-2.7,6-7.8,9.2-13.1,12.7c-6.6,4.4-22.2,0.7-26.4-5.4c-2.5-3.6-2.9-3.6-6-0.5
	c-5.9,5.9-12.1,11.4-20.5,13.1c-13.3,2.7-26.1,2.1-36.5-8.1c-6.4-6.3-8.2-14.2-7.2-23c2.5-20.2,12.1-35.6,30.6-44.7
	C393.5,270.3,396,269.8,398.4,269z M387,307.9c0.7-0.4,1.5-0.8,2.2-1.3c5.9-5,10.5-10.8,12.1-18.5c0.3-1.2-0.4-2.7-0.6-4
	c-1.1,0.6-2.6,0.9-3.3,1.9C392.3,292.3,389.2,299.7,387,307.9z"/>
<path id="XMLID_8658_" d="M327,280.3c5.3-1.1,9.9-2.4,14.7-2.9c10.2-1.1,18.9,4.8,18.6,16.1c-0.3,12.8-2.1,25.4-8,36.8
	c-3.1,5.9-8.3,10.8-12.9,15.8c-4.5,4.8-10.3,7.9-16.5,10.1c-8.6,3-20.1,3.2-26-5.8c-1.3-2.1-2.3-1.1-3.6,0.4
	c-5.5,6.7-11.8,12.6-20.7,14.3c-11.4,2.2-22.3,1-30.5-8.4c-5.6-6.4-6.5-14.3-5.6-22.6c1.3-11.8,6-22.1,13.3-31.3
	c6.8-8.5,14.9-14.5,26.1-15c3-0.1,6.2,0.5,9,1.5c5.2,1.9,7.1,5.4,6.8,11c-0.4,7.9-3.8,14.7-8,21.1c-5.1,7.8-11.3,14.6-19.2,19.7
	c-0.9,0.6-1.4,2.9-1.1,4.1c1.2,3.9,5.4,5.4,9.6,3.6c5.5-2.3,9.5-6.2,12.6-11.1c4-6.4,5.8-13.2,7-20.8c2.1-13.5,5.7-26.8,9.5-39.9
	c3.2-10.9,7.4-21.6,11.4-32.2c1.6-4.1,3.4-8.4,7.7-10.5c5.2-2.5,10.7-3,16.3-1.5c2.4,0.7,3.5,2.3,3.2,4.6c-0.3,2.3-0.8,4.7-1.6,6.9
	c-3.9,11.2-8,22.3-12,33.5C327.1,278.6,327.1,279.6,327,280.3z M334.8,307.8c-1.4-3.1-2.5-6.3-4.3-9.1c-0.6-0.9-3.6-1.4-4.2-0.8
	c-2.7,2.7-5.8,5.4-7.2,8.8c-2.2,5.4-3.5,11.3-4.3,17.1c-0.5,3.5,0.2,7.3,1.2,10.8c0.9,3.3,3,3.9,5.7,1.8c2-1.6,3.9-3.5,5.3-5.6
	C331.6,324,335.9,317,334.8,307.8z M259.4,326.1c0.2,0.2,0.4,0.4,0.6,0.6c0.7-0.3,1.5-0.5,2-1c2.7-3.2,5.7-6.3,7.8-9.9
	c1.8-3.2,2.7-6.9,3.9-10.5c0.2-0.6-0.5-1.6-0.8-2.4c-0.7,0.4-1.8,0.6-2.2,1.2c-2.6,4.4-5.3,8.8-7.7,13.3
	C261.6,320.2,260.6,323.2,259.4,326.1z"/>
<path id="XMLID_8652_" d="M372.5,468.1c0.5-3.3,0.9-5.9,1.3-8.5c0.5-3.7,1.4-6.9,6.2-7c1.4,0,2.8-1.2,4.3-1.5
	c0.9-0.2,2.4-0.1,2.8,0.5c0.6,0.8,1,2.7,0.6,3.2c-2.9,3.4-0.2,6.4,0.3,9.5c0.2,1.4,1.3,2.7,1.2,4c-0.1,1.2-1.3,2.3-2,3.5
	c-1-0.7-2.5-1.2-2.9-2.2c-1-2.2-1.5-4.7-2.3-7c-0.3-0.8-0.7-1.6-1.9-2.3c-0.6,3.3-1.3,6.5-1.9,9.8c-0.4,2.4-0.9,4.6-3.7,5.4
	c-2.6,0.7-4.2-0.6-5.8-2.3c-3.2-3.3-6.6-6.3-9.9-9.5c-1.2-1.2-3.6-2.2-1.7-4.5c1.4-1.8,4.3-1.7,6.2,0.3c2.3,2.3,4.6,4.8,6.9,7.1
	C370.6,467.1,371.2,467.3,372.5,468.1z"/>
<path id="XMLID_8649_" d="M484.5,206c3.9,0,7.7,0,11.6,0c2.9,0,4.9,0.9,5.7,4c0.5,2,1.4,4,2.4,5.9c1.4,2.6,1,4.6-1.4,6.4
	c-2.9,2.2-5.5,4.7-8.3,7c-4,3.4-6.9,2.8-9-1.9c-2.1-4.7-4.2-9.4-6.1-14.2C477.6,209.3,480.4,205.3,484.5,206z M490.4,225.9
	c2.3-2,4.1-3.6,6-5.1c2.3-1.9,1.6-8.5-1.3-9.1c-3.1-0.6-6.5-0.1-9.9-0.1C487,216.5,488.6,220.8,490.4,225.9z"/>
<path id="XMLID_8648_" d="M166.7,416.6c-0.1-2.2-0.8-4.6-0.1-5.1c2.1-1.5,3.8-0.2,5.3,1.7c1.1,1.4,2.1,3.6,5.5,2
	c-2.1-2.2-4.1-3.9-5.7-5.9c-0.8-1-1-2.5-1.5-3.8c1.6,0,3.9-0.7,4.8,0.2c4.6,4.5,8.8,9.4,13.1,14.2c0.4,0.4,0.7,1.2,0.6,1.6
	c-1.5,3.5,0.9,5,3.3,6.3c2.3,1.2,4.7,2.5,7.2,2.9c3.1,0.4,5.7,1.7,8,6c-3.6-0.4-6.7-0.8-9.9-0.9c-4.2-0.2-7.1-2.7-10.1-5.2
	c-0.8-0.7-1.4-1.7-2.3-2.1c-3.9-1.7-3.9-3.9-1.1-6.6c0.4-0.4,0.4-1.2,0.8-2.3c-6.1,0.6-11.8,1.1-17.5,1.7c-0.9,0.1-2.1,0.5-2.8,0.1
	c-1.2-0.7-2.1-1.9-3.1-2.8c1.1-0.6,2.1-1.2,3.2-1.6C165.3,416.5,166.2,416.6,166.7,416.6z"/>
<path id="XMLID_8642_" d="M304.3,483.9c-5.8-0.2-11.7-0.4-17.5-0.7c-2.9-0.1-5-3.8-3.6-6.7c2-4.1,4.4-8,6.6-12
	c0.1-0.1,0.1-0.2,0.2-0.3c2.6-3.1,14.5-1.6,16,2.1c1.6,3.8,2.9,7.7,4,11.6C311.1,481.2,308.2,484.2,304.3,483.9z M288.9,476.8
	c0.2,0.3,0.4,0.6,0.6,0.9c4.8,0.2,9.6,0.4,14.4,0.7c-0.2-7-1.6-9.1-7.8-9.5C290.8,468.5,291.6,474.4,288.9,476.8z"/>
<path id="XMLID_8639_" d="M465.5,419.4c-1.2,1.9-1.9,3.5-3.1,4.7c-3.4,3.5-7.2,6.7-10.6,10.3c-4.6,4.8-8.9,4.4-12-1.4
	c-1.4-2.7-2.9-5.3-4.5-8c-1.4-2.4-1.3-4.4,1.1-6.1c0.9-0.7,1.9-1.4,2.6-2.4c4-5.8,9.2-5.2,14.8-2.9c2.3,0.9,4.8,1.3,7,2.3
	C462.4,416.5,463.6,417.9,465.5,419.4z M458.2,420.1c-0.6-0.5-1-1-1.5-1.1c-3.1-0.8-6.1-1.7-9.3-2.1c-2.6-0.3-7.4,5.1-6.5,7.1
	c1.1,2.5,2.5,4.8,4.1,7c0.4,0.5,2.1,0.7,2.6,0.3c3.3-3,6.4-6.2,9.5-9.3C457.6,421.5,457.8,420.8,458.2,420.1z"/>
<path id="XMLID_8635_" d="M281,474.3c0.6,6.1-1.8,8.3-7.6,7.1c-4.7-0.9-9.5-1.7-14.2-2.6c-4.1-0.8-5.5-4.1-3-7.6
	c2.2-3.2,4.4-6.4,6.9-9.3c1.1-1.2,3.1-2.2,4.6-2.2c2.9,0,5.9,0.6,8.6,1.5c1.2,0.4,2.6,2.1,2.9,3.4
	C280.2,467.8,280.5,471.1,281,474.3z M275.3,472.3c-0.1-0.9-0.3-1.8-0.4-2.8c-0.5-3.5-3.5-3.6-5.9-3.9c-1.2-0.1-2.7,1.1-3.8,2
	c-1.1,0.9-1.9,2.1-2.6,3.3c-1.1,1.7-1,2.8,1.4,3.1c2.7,0.3,5.3,0.8,7.9,1.5C275,476.3,275.7,475,275.3,472.3z"/>
<path id="XMLID_8632_" d="M468.1,155.2c2.6,0,9.5,9.9,8,12.6c-2.4,4.2-5,8.2-7.9,12.1c-1.8,2.4-5,2.2-7-0.3
	c-3.6-4.5-7-9.1-10.3-13.9c-1.9-2.8-0.9-6.3,2.2-7.2C457.8,157.2,462.7,156.4,468.1,155.2z M455.8,163.1c0,0.4,0.1,0.9,0.1,1.3
	c1.6,1.7,3.3,3.3,4.7,5.2c4.8,6.1,4.7,6.1,8.7-0.5c1.5-2.5-0.8-8.2-3.6-8.1C462.4,161.2,459.1,162.4,455.8,163.1z"/>
<path id="XMLID_8631_" d="M325.5,471.4c0.4-2.2,0.6-4.4,1.4-6.4c0.4-0.9,2.1-1.2,3.2-1.8c0.2,1.1,0.5,2.2,0.5,3.3
	c0,2.7-0.3,5.3-0.1,8c0,0.9,1,1.7,1.6,2.5c0.6-0.7,1.5-1.4,1.8-2.2c1.5-3.2,2.5-6.6,4.3-9.6c0.9-1.6,2.8-3,4.6-3.8
	c0.9-0.4,2.8,0.4,3.6,1.2c3.8,4,7.5,8.1,11.1,12.3c0.9,1.1,0.9,2.8,1.4,4.2c-1.8,0-4.2,0.7-5.4-0.2c-2.5-1.9-4.3-4.6-6.3-7
	c-0.5-0.6-0.8-1.4-1.4-2c-0.8-0.8-1.7-1.5-2.5-2.3c-0.6,1-1.4,2-1.9,3.1c-1.4,3.1-2.5,6.4-3.9,9.5c-1.5,3.3-6.4,4.1-8.4,1.1
	c-1.8-2.8-2.8-6.2-4.2-9.3C325.1,471.7,325.3,471.6,325.5,471.4z"/>
<path id="XMLID_8629_" d="M205.9,451.6c3.5-2.5,6.9-5.1,10.6-7.3c1.5-0.9,3.8-1.2,5.3-0.8c2.3,0.7,2,2.9,1.8,5.1
	c-0.4,4.6-0.6,9.1-0.6,13.7c0,1.8,0.3,3.9-2.4,3.7c-2.4-0.2-3.3-2-3-4.3c0.4-3.4,0.7-6.8,1-10.2c0.1-0.9-0.1-1.7-0.1-3.3
	c-4,2.9-7.3,5.5-10.8,7.7c-1.3,0.8-3.3,1.4-4.6,0.9c-2.2-0.7-2.8-2.6-2.4-5.2c0.8-5.4,3.4-9.8,7.4-13.2c0.9-0.7,2.6-0.4,4-0.5
	c-0.4,1.1-0.6,2.5-1.4,3.3c-2.5,2.9-5.5,5.4-5.7,9.5C205.3,451,205.6,451.3,205.9,451.6z"/>
<path id="XMLID_8626_" d="M488.3,239.1c-0.1-4.1,1.8-5.7,5.5-4.7c4.9,1.3,9.8,2.5,14.5,4.2c1.5,0.5,3.3,2.1,3.6,3.6
	c0.3,1.1-1.3,3-2.4,4c-3.5,3-7.2,5.7-10.8,8.5c-2.7,2.1-5.1,1.8-6.2-1.2C490.7,248.7,489.6,243.7,488.3,239.1z M505.4,244
	c-0.1-0.3-0.1-0.7-0.2-1c-3.4-1-6.8-2-11.3-3.3c0.9,3.8,1.6,6.8,2.4,10.3C499.9,247.6,502.7,245.8,505.4,244z"/>
<path id="XMLID_8625_" d="M333.3,85.5c-0.7,0-1.4,0.1-2.1,0c-6.2-0.6-6.2-0.6-7.6,5.3c-0.6,2.5,0.4,3.2,2.6,3.3c1.8,0,3.5,0,5.3,0.3
	c0.7,0.1,1.5,1,1.9,1.7c0.1,0.3-0.8,1.3-1.4,1.7c-2.8,1.9-10.5,2-12.8-0.1c-0.9-0.8-1.4-2.8-1.2-4c0.7-3.8,1.9-7.5,2.9-11.2
	c0.6-2.3,2.1-3.2,4.5-3c5.7,0.7,11.4,1.3,17.1,2.1c0.9,0.1,2.5,1.7,2.4,2.2c-0.6,2.1-1.7,4-2.7,6c-1-0.7-2-1.5-3.1-2.1
	c-1.7-1.1-3.5-2-5.3-3.1C333.6,85,333.5,85.2,333.3,85.5z"/>
<path id="XMLID_8624_" d="M484.6,188.7c-1.5-2.5-3.1-4.9-4.4-7.5c-0.5-0.9-0.4-2.1-0.6-3.2c1.2-0.1,2.5-0.6,3.5-0.2
	c1.4,0.6,3.1,1.5,3.9,2.8c2.6,4.1,4.9,8.3,7.1,12.5c0.5,1,0.3,2.3,0.4,3.5c-1.1,0-2.2,0.2-3.3,0c-6.4-1.2-12.9-2.4-19.3-3.9
	c-1.7-0.4-3.2-2-4.5-3.3c-0.5-0.5-0.3-1.9-0.4-2.9c1-0.1,2.1-0.4,3-0.2c4.6,1,9.3,2.2,13.9,3.3C484.1,189.4,484.4,189.1,484.6,188.7
	z"/>
<path id="XMLID_8623_" d="M478.2,386.6c1.1,4.4,3.4,8.9,2.8,12.9c-0.5,3.4-3.7,7.5-6.9,9.1c-4.1,2.1-9.3,1.9-15.3,2.9
	c1.2-2,1.6-3.7,2.8-4.5c1.4-0.9,3.3-1,5.1-1.4c1.7-0.3,3.3-0.6,6.1-1c-1.7-1.3-2.5-2.1-3.5-2.7c-3.1-1.7-6.3-3.2-9.2-5.1
	c-0.8-0.5-0.9-2.2-1.3-3.4c1.2-0.3,2.7-1.1,3.6-0.6c3.4,1.8,6.6,4.1,9.9,6c1,0.6,2.4,0.4,3.5,0.6c-0.1-1.2,0-2.5-0.5-3.6
	C473.1,390.8,473.5,389.1,478.2,386.6z"/>
<path id="XMLID_8622_" d="M180.4,141.8c-0.3-4.2-0.3-8-0.8-11.8c-0.4-2.7,0-5.4,2.3-6.4c1.7-0.8,4.2-0.2,6.2,0.3
	c3.2,0.8,6.3,1.9,9.3,3.2c1.2,0.5,1.9,1.9,2.8,2.9c-1.2,0.7-2.5,2.1-3.6,2c-2.5-0.4-4.9-1.5-7.3-2.3c-1.4-0.5-2.7-1.2-5.1-2.2
	c0.3,4.4,0.6,8.1,0.7,11.7c0,1.6-0.2,3.3-1,4.6c-1.5,2.5-3.9,3.1-6.3,1.3c-3.3-2.5-6.5-5.3-6.5-9.9c0-1.3,1-2.7,2-4
	C175.3,134.8,175.2,139.6,180.4,141.8z"/>
<path id="XMLID_8620_" d="M237.8,466.7c1.2-2.9,2.4-5.7,3.5-8.6c0.4-1,0.4-2.3,1.1-2.9c0.8-0.8,2.1-1,3.1-1.5c0.3,1,1,2.2,0.7,3
	c-1,3-2.4,5.9-3.6,8.8c-0.3,0.7-0.4,1.5-0.9,3.3c2.9-1.2,5-2.1,7.1-2.9c1.1-0.4,2.5-0.8,3.6-0.5c2.1,0.6,2.6,2.8,0.7,3.6
	c-5.2,2.1-9.8,6.9-16.3,3.4c-2.3-1.2-4.3-2.1-5.2-4.8c-0.7-2.1-1.9-4-2.6-6.2c-0.3-1,0.3-2.3,0.4-3.4c1.2,0.3,2.7,0.3,3.4,1.1
	c0.9,0.9,1.3,2.4,1.9,3.7c0.6,1.3,1.3,2.6,1.9,3.8C237.1,466.7,237.5,466.7,237.8,466.7z"/>
<path id="XMLID_8619_" d="M284.4,98.6c1.1-1.7,2.2-3.3,3.3-5c-0.3-0.3-0.4-0.6-0.6-0.7c-1.1-0.4-2.1-0.8-3.2-1.2
	c1-1.1,1.8-2.6,3.1-3.3c1.1-0.6,2.8-0.2,4.1-0.5c1.1-0.3,2.2-1,3.2-1.5c-0.1-0.5-0.3-1-0.4-1.4c-2.5,0.3-4.9,0.7-7.4,0.8
	c-0.9,0-1.9-0.6-2.9-0.9c0.6-1.1,1.1-3,2-3.2c5.4-1,10.9-1.8,16.3-2.3c1.9-0.2,2.6,1,1.2,2.7c-4.4,5.4-8.7,10.8-13.3,15.9
	c-1,1.1-3.2,1.3-4.8,1.9C284.9,99.4,284.6,99,284.4,98.6z"/>
<path id="XMLID_8618_" d="M121.3,222.9c2.4-0.6,4.8-1.1,7.1-1.7c1.9-0.5,2.1-1.6,1-3.1c-2-2.6-4.1-5.1-6-7.8c-0.7-1-1.3-2.2-1.5-3.4
	c-0.1-0.7,0.6-1.7,1.3-2.2c0.3-0.2,1.6,0.3,2,0.9c2.8,3.5,5.6,7,8.1,10.6c2.2,3.2,0.5,7.7-3.2,8.8c-4.3,1.3-8.6,2.4-13,3.3
	c-0.7,0.2-2.4-0.9-2.5-1.6c-0.4-2.8,3.2-8.3,5.9-9.1c1.2-0.3,2.6,0.1,3.8,0.3c-0.6,1.4-1.2,2.7-1.9,4c-0.2,0.3-0.8,0.3-1.3,0.4
	C121.2,222.5,121.2,222.7,121.3,222.9z"/>
<path id="XMLID_8617_" d="M135.6,394.5c1.4,0.3,3.1,0.3,4.3,1c1.4,0.8,2.7,2,3.7,3.4c0.2,0.3-0.8,2.3-1.5,2.4
	c-4.1,0.6-11-3.6-12.9-7.3c-1.3-2.6-1.6-5-0.3-7.7c0.9-1.8,1.1-3.9,2-5.6c0.5-0.9,1.6-1.6,2.5-2.3c0.5,1.1,1.5,2.3,1.3,3.3
	c-0.4,2.6-1.2,5-1.9,7.6c0.2,0.2,0.5,0.4,0.7,0.6c2.7-1.8,5.4-3.5,8-5.3c1.4-1,3-2.3,4-0.2c0.4,0.8-0.6,3-1.6,3.8
	c-2.7,2-5.8,3.6-8.8,5.4C135.3,393.6,135.4,394.1,135.6,394.5z"/>
<path id="XMLID_8616_" d="M392.4,102.3c-2.2-0.9-4.4-1.8-6.6-2.9c-1.2-0.6-2.2-1.7-3.3-2.6c1.7-0.8,3.8-2.6,5.1-2.2
	c5.1,1.7,10,4.1,14.8,6.5c1.7,0.9,1.4,2.4-0.3,3.2c-6.5,2.9-13,5.9-19.7,8.5c-1,0.4-2.8-1-4.2-1.6c0.8-1,1.5-2.3,2.5-2.8
	c3.8-1.8,7.7-3.2,11.5-4.8C392.3,103.1,392.3,102.7,392.4,102.3z"/>
<path id="XMLID_8615_" d="M429.6,425.2c0.7,1.1,1.8,2.1,2,3.3c0.2,1.1-0.3,2.8-1.1,3.5c-3.7,3-7.8,5.7-11.6,8.6
	c-3,2.3-5.8,4.8-8.7,7.1c-0.5,0.4-1.1,0.9-1.7,1.2c-1.8,1-3.7,1.1-4.4-1c-0.4-1.1,0.3-3.3,1.2-4c4.6-3.7,9.4-7,14.1-10.5
	c2.2-1.6,4.3-3.3,6.4-4.9c0.8-0.6,1.7-1.2,2.6-1.8C428.8,426.2,429.2,425.7,429.6,425.2z"/>
<path id="XMLID_8614_" d="M417.2,461.2c-0.9-0.6-2.2-1.2-2.6-2.1c-0.3-0.7,0.4-2.3,1.1-2.8c3-2.4,6.2-4.6,9.3-6.9
	c4.2-3.1,8.5-6.3,12.7-9.5c1.6-1.2,3.3-2.2,4.9-0.2c1.8,2.2,0,3.3-1.6,4.4c-7.1,5.2-14.2,10.4-21.3,15.5
	C419.1,460.1,418.3,460.5,417.2,461.2z"/>
<path id="XMLID_8613_" d="M503.1,361.9c-0.2,0.4-0.5,1.3-0.9,2.1c-3.6,7.2-7.3,14.4-10.9,21.6c-0.9,1.9-1.8,3.9-4.4,2.7
	c-2.8-1.3-1.9-3.2-0.8-5.3c3.5-6.8,6.8-13.6,10.3-20.4c0.5-1,1.1-2.1,1.9-2.9C499.9,358.2,502.6,359.3,503.1,361.9z"/>
<path id="XMLID_8612_" d="M482.6,353.3c3.4-0.5,4.6,1.2,3.5,3.6c-2.8,5.7-5.8,11.3-8.6,17c-1.1,2.2-1.7,4.7-3.1,6.7
	c-0.7,1-2.6,1.9-3.8,1.7c-2.2-0.4-2-2.3-1.2-4c3.6-7,7.2-14,10.9-20.9C481.1,355.8,482,354.3,482.6,353.3z"/>
<path id="XMLID_8611_" d="M131.7,325.6c0.1,4.9,3,9.9-1.5,14.4c-1.4,1.4,1.1,9.7,3.1,11.7c2.8,2.7,3.5,5.3,2.5,9.9
	c-4-3.5-7.9-6.8-9.2-11.6c-2.6-9-1.9-11.2,2.9-15.8C127.6,330.8,129.3,328.1,131.7,325.6z"/>
<path id="XMLID_8610_" d="M371.6,107.1c-3.8,1.5-6.4,0.4-8.3-1.7c-2.7-3.1-6.2-4.5-10-5.5c-2.1-0.5-4.3-1.7-5.8,1.3
	c-0.3,0.5-2.2,0.1-3.4,0.1c0.2-2,0-4.1,0.7-5.8c0.4-1,2.5-2,3.6-1.9c3,0.4,5.9,1.6,8.8,2.1c4,0.7,6.7,3.2,9.3,6
	C368.2,103.5,369.9,105.3,371.6,107.1z"/>
<path id="XMLID_8609_" d="M362.6,94.8c-4-1-8.9-2.1-13.8-3.5c-0.5-0.1-1.1-1.5-1-2.2c0.1-1.3,0.4-2.6,1.1-3.7c0.7-1,1.9-1.8,2.8-2.6
	c0.7,1,1.5,2,2.2,3c0.5,0.8,0.9,2.1,1.6,2.3c4.3,1,8.4,2.6,13.1,1c2.1-0.7,4.8,0.1,7.2,0.4c0.5,0.1,1.1,1.1,1.2,1.8
	c0.1,0.4-0.8,1.1-1.4,1.3C371.5,93.3,367.5,94,362.6,94.8z"/>
<path id="XMLID_8608_" d="M462,146.5c-0.7,0.9-1.3,2.1-2.2,2.5c-0.8,0.4-2.3,0.2-2.9-0.3c-6.1-5.8-12.2-11.7-18.1-17.8
	c-0.6-0.6-0.5-2.9,0.2-3.5c0.6-0.6,2.9-0.7,3.5-0.1c6.2,5.7,12.2,11.6,18.3,17.5C461.3,145.1,461.5,145.7,462,146.5z"/>
<path id="XMLID_8607_" d="M451.5,157.9c-1.2,0.6-2.3,1.4-3.6,1.7c-0.8,0.2-2.1-0.1-2.7-0.7c-5.7-5.6-11.2-11.3-16.9-16.9
	c-1.4-1.3-2.2-2.6-0.6-4.2c1.6-1.6,3-0.9,4.5,0.6c5.6,5.5,11.3,10.9,16.9,16.4C449.7,155.3,450,156,451.5,157.9z"/>
<path id="XMLID_8606_" d="M194.1,451.8c-1.7-2.8-3.9-5.3-5-8.3c-1.5-4-4.7-6-7.8-8.3c-0.5-0.4-1.7,0.3-2.6,0.4c-1,0-2.4,0.3-2.8-0.2
	c-2-2.8,0.9-4.1,2.1-6c1-1.5,2.3-1.8,3.8-0.5c2.7,2.4,5.6,4.7,8.3,7c2.5,2.1,6.1,12.9,5.2,15.2C194.9,451.4,194.5,451.6,194.1,451.8
	z"/>
<path id="XMLID_8605_" d="M242.5,93c-1.3,2.1-2.1,3.5-3,4.9c-2.2,3.4-4.1,6.8-2,11.1c0.4,0.9-0.9,2.7-1.4,4.1
	c-0.9-1-2.4-1.9-2.5-2.9c-0.4-4.2-3.3-5.4-6.6-6.7c-1.4-0.5-3.3-2.1-3.5-3.4c-0.2-1.7,3.8-2.7,5.9-1.1c2.7,1.9,3.7,0.7,5.2-1.5
	c1.3-2,3.2-3.6,5-5.2C240,92,241.3,92.7,242.5,93z"/>
<path id="XMLID_8604_" d="M506.8,275.5c-0.2-2.3-1.1-4.5-0.4-5.3c1.7-2,3.6-0.5,5.1,0.9c1.4,1.4,3.1,2.6,4.1,4.2
	c1.5,2.6,0.4,4.4-2.6,4.6c-5.6,0.3-11.2,0.6-16.8,0.7c-1,0-2-1.2-3-1.8c0.8-0.9,1.6-2.6,2.5-2.7c2.6-0.4,5.4-0.2,8-0.3
	C504.8,275.7,506,275.6,506.8,275.5z"/>
<path id="XMLID_8603_" d="M508.3,289.3c-0.5-0.7-1.4-1.4-1.6-2.2c-0.2-0.9,0-2.3,0.6-2.7c0.8-0.5,2.4-0.8,3.1-0.4
	c1.7,1.2,3.4,2.6,4.6,4.3c0.7,1,1.2,2.8,0.7,3.8c-0.4,1-2.1,1.9-3.3,1.9c-5.2,0.1-10.3,0.1-15.5-0.2c-1.3-0.1-2.5-1.5-3.8-2.3
	c1.4-0.8,2.7-2.2,4.1-2.3c3.6,0,7.1,0.6,10.7,1C508.1,290,508.2,289.6,508.3,289.3z"/>
<path id="XMLID_8602_" d="M508.6,304.4c-1.1-1.5-1.9-2.1-1.9-2.6c0-1.1,0.1-2.7,0.8-3.2c0.7-0.5,2.5-0.2,3.3,0.4
	c1.4,1,2.7,2.4,3.4,4c0.7,1.4,1.1,3.4,0.6,4.8c-0.3,0.8-2.5,1.4-3.9,1.3c-5.1-0.4-10.3-1-15.4-1.8c-1.1-0.2-2-1.5-2.9-2.3
	c1.1-0.7,2.2-2.1,3.3-2.1c2.9,0.1,5.8,0.7,8.7,1.1C505.6,304.1,506.6,304.2,508.6,304.4z"/>
<path id="XMLID_8601_" d="M156.3,149.5c0.2,3.1,0.5,5.5,0.4,7.9c-0.1,3,0.8,5.1,3.2,7c1,0.8,2,3.5,1.5,4.2c-1.5,1.9-3,0.4-4.3-0.9
	c-2-2-4-3.3-7.1-1.7c-2,1-4.6,0.7-7.4,1.1c1.2-4,3.5-5.2,6.2-5.7c3-0.6,3.9-2,3.2-5C151.4,153.2,153.5,151.5,156.3,149.5z"/>
<path id="XMLID_8600_" d="M151.3,180.2c0.3,3.4-1.6,5.7-3.9,7.2c-3.7,2.4-6.1,5.7-8,9.6c-0.8,1.7-2.1,3.1-0.3,5.1
	c0.5,0.5-0.2,2.5-0.8,3.4c-0.3,0.4-2,0.3-2.8-0.1c-3.3-1.6-3.6-2.9-1.7-6.1c1.1-1.9,2.2-3.9,3.1-5.9
	C139.8,186.9,145.4,183.5,151.3,180.2z"/>
<path id="XMLID_8599_" d="M138.6,173.1c0.2,6.7,0.3,13.4-3.6,19.3c-1.5,2.3-2.6,4.8-4.2,6.9c-0.6,0.8-2.6,1.6-3.2,1.3
	c-1.3-0.8-2.2-2.4-3.2-3.6c0.9-0.8,1.8-1.6,2.8-2.2c0.7-0.5,2-0.5,2.3-1.2c2.4-3.8,5.2-7.4,4.8-12.5
	C134.1,177.8,135.8,175,138.6,173.1z"/>
<path id="XMLID_8598_" d="M319.5,471c-2.4,0.1-5.2,1-5.9,0.1c-2-2.5,0.8-3.8,2.4-5.2c1-0.8,1.9-1.8,3.1-2.2c3-1.1,4.7,0.2,4.8,3.3
	c0.1,4.1,0.3,8.2,0.3,12.3c0,1.9,0.2,4.2-2.4,4.3c-2.7,0-2.8-2.2-2.6-4.4C319.3,476.4,319.4,473.5,319.5,471z"/>
<path id="XMLID_8597_" d="M415.6,452.8c-0.8-1-1.9-1.9-2.3-3c-0.2-0.6,0.5-1.9,1.1-2.4c4.5-3.5,9.1-7.1,13.8-10.3
	c1-0.7,2.9-0.1,4.3-0.1c-0.4,1.4-0.5,3.2-1.4,4c-3.6,3-7.4,5.8-11.1,8.6c-1.1,0.8-2.4,1.5-3.5,2.3
	C416.2,452.1,415.9,452.5,415.6,452.8z"/>
<path id="XMLID_8596_" d="M483,381.2c-1.5-0.7-2.7-0.9-3.4-1.7c-0.4-0.4-0.3-1.8,0.1-2.5c2.2-4.7,4.7-9.2,6.9-13.9
	c1-2.2,2.4-2.8,4.5-1.6c2.2,1.2,1,2.7,0.3,4.2c-2,4-3.8,8.1-5.8,12.1C484.9,379,483.9,380,483,381.2z"/>
<path id="XMLID_8595_" d="M131.8,371.3c-0.2-2-0.8-3.5-0.4-4.8c0.2-0.7,2.1-1.7,2.7-1.4c2.1,1,4.2,2.3,5.9,3.9
	c0.4,0.3-0.2,2.8-1,3.2c-4.3,2.5-8.8,4.8-13.4,7c-0.5,0.3-1.5-0.4-2.3-0.7c0.4-1.1,0.5-2.7,1.3-3.2
	C126.9,373.7,129.5,372.5,131.8,371.3z"/>
<path id="XMLID_8594_" d="M216.8,111.2c-2.2,0.6-3.9,1.1-5.6,1.7c0.4-1.8,0.7-3.7,1.2-5.5c0.1-0.6,0.5-1.1,0.8-1.5
	c2.6-3.6,5-3.5,6.7,0.5c1.2,2.9,2.3,5.9,3.1,8.9c0.3,1.3-0.1,3.8-0.8,4.1c-2.1,0.9-2.9-1-3.5-2.8
	C218.1,114.5,217.3,112.6,216.8,111.2z"/>
<path id="XMLID_8593_" d="M167.6,146.3c-0.6,0.4-0.9,0.5-1.1,0.7c-1,0.9-2,1.8-3,2.8c-0.6-1.5-1.6-3.1-1.7-4.6
	c0-1.4,0.8-2.9,1.6-4.2c1.3-2.3,3-2.4,4.8-0.4c2.5,2.7,5.1,5.2,7.5,8c0.6,0.7,0.3,2.2,0.4,3.3c-1.1-0.1-2.6,0.3-3.4-0.3
	C170.9,150,169.4,148.2,167.6,146.3z"/>
<path id="XMLID_8592_" d="M452.1,148.3c-0.1,2.2-2.7,3.2-4.4,1.7c-3.7-3.4-7.3-6.9-10.8-10.6c-0.5-0.5-0.4-2.3,0.1-2.9
	c0.6-0.7,2.5-1.2,2.9-0.8c4,3.8,7.9,7.7,11.7,11.6C451.9,147.6,452,148.1,452.1,148.3z"/>
<path id="XMLID_8591_" d="M308.3,85.4c0.2-2,0.2-3.6,0.6-5.2c0.5-2.5,3.1-3.8,5.4-2.6c0.5,0.3,0.9,1.5,0.8,2.2
	c-0.5,2.2-1.2,4.4-2,6.6c-0.5,1.2-1.3,2.3-2,3.4c-0.9-1.3-1.8-2.6-2.7-4C308.2,85.6,308.3,85.3,308.3,85.4z"/>
<path id="XMLID_8590_" d="M123.3,348.1c2.6,2.4,0.3,15.2-3.2,18.1C118.1,363.2,120.1,352,123.3,348.1z"/>
<path id="XMLID_8589_" d="M416.2,118.3c1.4,2.3,2.7,3.4,2.9,4.7c0.2,2.2-1.6,3.6-3.6,3.2c-1.2-0.2-3-2.1-2.9-3
	C412.9,121.7,414.5,120.5,416.2,118.3z"/>
<path id="XMLID_8588_" d="M268.2,96c-2.2,1.5-3.4,2.8-4.9,3.3c-0.6,0.2-2.6-2-2.5-2.3c0.8-1.5,1.9-3,3.3-4
	C264.4,92.8,266.2,94.5,268.2,96z"/>
<path id="XMLID_6376_" class="st0" d="M473.3,328.1c-3,6.7-8.5,10.4-13.8,13.9l-0.4,0.3c-1.5,1-3.3,1.7-5.2,2.1
	c-9.1,1.9-21.7-2.3-25.9-8.3c-0.1-0.2-0.2-0.3-0.3-0.4c-0.2,0.2-0.3,0.3-0.4,0.4c-5.7,5.8-12.6,12.1-22.2,14.1
	c-10.8,2.2-26.7,3.7-39.6-8.9c-4.1-4-6.7-8.8-7.9-14.3c-0.7,1.6-1.4,3.2-2.2,4.7c-2.8,5.4-7,9.8-11.1,14.1c-0.8,0.8-1.6,1.7-2.3,2.5
	c-4.3,4.7-10.2,8.3-17.8,11c-1.6,0.6-3.3,1.1-5.1,1.4c-8.4,1.7-17.8,0.6-23.8-6.9c-4.9,5.9-11.8,12.6-21.7,14.6c-0.1,0-0.2,0-0.2,0
	c-14.6,2.9-25.7-0.2-33.7-9.4c-7.3-8.3-7.2-18.4-6.5-25.2c0.9-8.8,3.6-16.9,8.1-24.6c-1.3-0.1-2.6-0.4-4-0.7
	c-2.5,1.9-5.1,3.6-7.9,5.4c-6.3,3.9-13.2,7.3-21.6,10.8c0,0,0,0.1,0,0.1c0.8,1.8,1.6,3.6,2.3,5.4c2.7,6.2,5.4,12.7,9,18.3
	c6.6,10.4,13.4,16.9,21.5,20.5c1.5,0.7,3.2,1.2,5,1.7c1.1,0.3,2.3,0.6,3.4,1c1,0.3,1.8,0.8,2.5,1.2c0.3,0.1,0.5,0.3,0.8,0.4l3.3,1.6
	L254,378c-0.1,0.2-0.2,0.5-0.4,0.8c-0.5,1-1.1,2.3-2.3,3.2c-2,1.6-4.4,3.4-7.2,4.7c-4.4,2.1-9.2,4.3-14.3,5.3
	c-5.5,1.1-11.4,1-17.7-1.6c-4.9-2-9.1-5.3-12.8-10c-8.3-10.5-12.2-22.6-14.9-33.4c-1.7,7-3.4,14.2-4.7,21.2
	c-1.7,8.8-1.6,17.5,0.3,25.8c0.3,1.2,0.6,2.6,0.5,4c0.2,0.2,0.4,0.5,0.6,0.7c10.9,12,23.2,22.3,37,30.9
	c26.5,16.4,55.3,24.9,86.3,25.8c10.8,0.3,21.5-0.3,32.2-1.8c7.3-1,14.5-2.5,21.6-4.4c24.1-6.5,45.8-17.7,64.7-34.1
	c9.9-8.6,18.7-18.4,26.2-29.2c11.4-16.3,19.6-34.1,25-53.1c1.1-4,2.2-8,3.1-12.1c-0.6,1.3-1.3,2.5-2,3.7
	C474.5,325.7,473.8,326.9,473.3,328.1z"/>
<path id="XMLID_6855_" class="st0" d="M154.3,259.3c8-4.3,16.6-7.8,25.5-10.6c1-0.3,2.1-0.6,3.1-0.9c-2.3-9.4-3-19.3-2.2-29.6
	c0.5-7.1,1.8-14.1,3.6-21c3.4-12.9,8.6-25,15.1-36.6c5.6-9.9,11.8-19.3,19.3-28c0.3-0.4,0.8-1.2,0.7-1.3c-0.6-0.5-1.1,0-1.6,0.3
	c-15.1,10-28.6,21.7-40.4,35.4c-10.3,11.9-18.8,25-25.5,39.2c-7.3,15.4-12.2,31.5-14.7,48.3c-0.9,5.7-1.4,11.4-1.7,17.1
	c1.4-1,2.7-1.9,4.1-2.9C144.3,265.5,149.1,262.1,154.3,259.3z"/>
<path id="XMLID_6879_" class="st0" d="M156.4,328.1c-0.1-0.1-0.3-0.1-0.6-0.2c-2.3-0.7-4.4-1.7-6.5-2.7c-4.7-2.3-6.2-6.2-4-10.9
	c0.7-1.6,1.5-3,2.3-4.5c0.5-1,1.1-2,1.5-2.9c1-2,2.3-3.2,4-3.6c1.7-0.4,3.6,0.1,5.4,1.4c1.5,1.1,3,2.1,4.7,3.1
	c0.2,0.1,0.4,0.3,0.6,0.4c1.9-4.8,3.8-9.6,5.7-14.4c1.5-3.9,3.1-7.8,4.6-11.6c-15.9,8.9-26.8,18.5-34.4,30.2
	c-0.4,0.6-0.8,1.2-1.1,1.9c0.6,3,1.2,5.9,2,8.9c2.4,9.4,5.5,18.4,9.2,27.1c1.7-7,3.8-14,6.3-21C156.3,328.7,156.4,328.3,156.4,328.1
	z"/>
<path id="XMLID_6880_" class="st0" d="M207.1,291.1c-0.6,1.2-1.1,2.4-1.7,3.6c-0.6,1.4-1.3,2.7-1.9,4.1c0.4-0.3,0.8-0.6,1.2-0.8
	c1.2-0.9,2.3-1.7,3.5-2.6c0.6-0.4,1.2-0.9,1.8-1.3C209,293,208,292,207.1,291.1z"/>
<path id="XMLID_6881_" class="st0" d="M417.4,309.7c-0.2-2.3-0.2-4.6-0.1-6.8c-5.4,8.8-12.4,16-21,21.6c-0.4,0.2-0.9,0.7-1.3,1.2
	c0.8,1,1.5,1.6,1.9,1.7c2.3,0.4,5.2,0,7-0.9c7-3.8,10.9-10.8,13.5-16.5C417.4,310,417.4,309.9,417.4,309.7z"/>
<path id="XMLID_6882_" class="st0" d="M267.1,343.6c-0.1,0.2-0.1,0.4-0.1,0.6c0.3,0.7,0.7,1.2,1.3,1.5c1,0.4,2.3,0.4,3.6-0.2
	c4.4-1.8,8-5.1,11-9.8c3.2-5.1,4.8-10.5,5.8-15.8c-0.7,1.1-1.3,2.2-2,3.2C281.2,331.9,274.8,338.6,267.1,343.6z"/>
<path id="XMLID_6883_" class="st0" d="M330.5,306.3c-0.8-1.9-1.6-3.8-2.6-5.4c0,0-0.1,0-0.1,0l0,0c-2.3,2.2-4.6,4.5-5.5,6.9
	c-1.8,4.7-3.2,10.2-4.1,16.4c-0.3,2.4,0,5.4,1.1,9.4c0,0.1,0,0.1,0,0.2c0.1,0,0.1-0.1,0.2-0.1c1.7-1.4,3.3-3.1,4.5-4.9
	c4.6-6.8,8.1-12.7,7.3-20.2C331.1,307.7,330.8,307,330.5,306.3z"/>
<path id="XMLID_6884_" class="st0" d="M443.1,212.1C443.1,212.1,443.1,212.1,443.1,212.1l2.2-0.4c7-1.4,14.3-2.8,21.6-3.5
	c-7.5-17.2-18-32.7-31.5-46.5c-11-11.2-23.3-20.8-36-30c-0.7-0.5-1.6-0.7-2.4-1c-0.1,0.1-0.1,0.2-0.2,0.3c0.2,0.3,0.3,0.6,0.5,0.9
	c0.5,0.6,1.1,1.1,1.6,1.7c2.6,3.2,5.2,6.3,7.6,9.5c8.7,11.4,16,23.6,21.5,36.9c4.3,10.5,7.1,21.4,8.2,32.7c0.3,2.8,0.4,5.6,0.4,8.4
	c0.5-1.4,0.9-2.7,1.4-4.1C438.5,215.4,440.4,212.7,443.1,212.1z"/>
<path id="XMLID_6885_" class="st0" d="M333.7,275c-0.3-1.1-0.5-2.1-0.7-3.2c-0.4,1.2-0.9,2.4-1.3,3.7
	C332.3,275.3,333,275.1,333.7,275z"/>
<path id="XMLID_6886_" class="st0" d="M294.2,293.2c1.5-6.1,3.1-11.9,4.7-17.3c2.6-9.1,6-18.1,9.3-26.8c0.7-1.9,1.4-3.8,2.1-5.7
	c1.4-3.8,3.6-9.6,9.4-12.4c4.8-2.3,9.7-3.1,14.6-2.5c0.4-1.8,0.9-3.5,1.4-5.2c3-10.3,7.2-19.9,14.3-28c6.2-7.2,13.5-13,22.1-17.1
	c1-0.5,2.1-0.9,3.2-1.4c-0.2-0.3-0.4-0.5-0.6-0.7c-2.2-2.5-4.4-5-6.6-7.4c-4.1-4.6-8.2-9.2-12.3-13.8c-0.3-0.4-0.6-0.6-1.2-0.3
	c-10.9,6.2-20.3,14.1-28,24c-0.8,1.1-1.6,2.2-2.4,3.3c0.9-16.2,6.8-30.7,15.4-44.3c-10.5-11.9-20.9-23.8-31.5-35.7
	c-10.7,12.1-21.2,24.1-31.8,36.1c9.2,13.2,14.9,27.5,15.5,43.6c-0.2-0.1-0.3-0.2-0.4-0.4c-4-5.8-8.6-11.1-13.8-15.7
	c-4.8-4.2-9.9-7.9-15.6-10.8c-0.7-0.3-1-0.3-1.5,0.3c-4.9,5.5-9.9,10.9-14.8,16.3c-1.7,1.9-3.3,3.7-5,5.6c2.3,1.2,4.6,2.2,6.7,3.4
	c2.2,1.2,4.3,2.5,6.4,3.9c6.9,4.7,13.1,10.3,17.3,17.7c2.8,4.8,5.1,10,7.2,15.1c5.7,14.1,8.4,28.8,7,44c-0.7,8.2-2.7,16.1-5.9,23.7
	c2.7,0.3,5.1,0.9,6.8,1.6C290.2,287.5,292.9,289.9,294.2,293.2z"/>
<path id="XMLID_6887_" class="st0" d="M454.1,297.6c-0.1,0.6-0.2,1.3-0.3,1.9c-0.7,3.9-1.4,7.7-1.5,11.4c0,1,0.3,2.2,0.7,3.1
	c0.2-0.4,0.4-0.8,0.6-1.1c0.1-0.3,0.3-0.6,0.4-0.8c4.1-7.7,8-16,12.1-25.4c3.2-7.2,9.1-10.3,15.5-8.1c0.2,0.1,0.3,0.1,0.4,0.2
	c0,0,0,0,0,0c0.1-6.9-0.8-13.8-1.7-20.7c-1.1-8.3-2.7-16.5-4.7-24.6c-0.7-2.8-1.5-5.6-2.4-8.4c-0.9,3.6-1.8,7.3-3,10.9
	C463.2,256.4,457.8,277.2,454.1,297.6z"/>
<g id="XMLID_6859_">
	<path id="XMLID_7263_" class="st1" d="M302.1,399.3c-0.6,0-0.8,0.7-0.9,1c-0.1,0.2-0.1,0.4-0.2,0.5c-0.5,1.5-1.2,2.9-2,4
		c-0.7,1.1-1.6,1.6-2.7,1.6c-0.7,0-1.2-0.3-1.5-0.8c-0.4-0.6-0.5-1.4-0.5-2.5c0-0.7,0.1-1.5,0.2-2.3c1-0.3,2.1-0.7,3.1-1.2
		c1.2-0.6,2.1-1.3,2.9-2.2c0.9-0.9,1.3-2,1.3-3.1c0-1-0.3-1.9-1-2.4c-0.6-0.5-1.2-0.7-2-0.7c-1.2,0-2.5,0.6-3.6,1.9
		c-1.1,1.2-2,2.8-2.6,4.6c-0.7,1.9-1,3.8-1,5.7c0,2.2,0.5,3.8,1.4,4.9c0.9,1.1,2,1.6,3.3,1.6c1.5,0,2.9-0.7,3.9-2.1
		c1-1.3,1.7-2.7,2.2-4.2c0.7-2,0.8-2.7,0.8-3.1C303,399.4,302.2,399.3,302.1,399.3z M296.8,395.4c0.5-0.5,1-0.7,1.5-0.7
		c0.3,0,0.5,0.1,0.7,0.2l0,0c0,0,0,0,0,0c-0.1,0.1-0.2,0.3-0.6,0.6c-0.6,0.5-1.3,1-2.1,1.5c-0.3,0.2-0.7,0.3-1,0.5
		c0-0.1,0.1-0.2,0.1-0.3C295.9,396.5,296.3,395.9,296.8,395.4z"/>
	<path id="XMLID_7264_" class="st1" d="M313,401c-0.8-0.6-1.9-1.1-3.2-1.5c-0.1-0.1-0.3-0.1-0.5-0.1c-0.1,0-0.2-0.1-0.4-0.1
		c-1.3-0.4-2.1-0.7-2.6-0.9c-0.3-0.1-0.3-0.3-0.3-0.3c0-0.3,0.1-0.9,0.6-1.4c0.5-0.5,1.1-0.9,1.8-1.2c0.9-0.4,1.3-0.4,1.4-0.4
		c0.2,0.2,0.5,0.3,0.7,0.3c0.5,0,1-0.4,1.3-1c0.2-0.5,0.3-0.9,0.3-1.4c0-0.3-0.1-1.6-1.6-1.6c-0.7,0-1.6,0.3-2.7,0.9
		c-1.1,0.6-2.2,1.4-3,2.3c-1,1.1-1.5,2.4-1.5,3.8c0,0.9,0.3,1.7,0.8,2.3c0.5,0.5,1,0.9,1.8,1.2c0.7,0.3,1.6,0.6,2.7,0.9
		c1,0.3,1.8,0.6,2.2,0.7c0.3,0.1,0.6,0.3,0.8,0.6c0.1,0.1,0.2,0.3,0.2,0.8c0,0.4-0.2,0.7-0.5,1.1c-0.4,0.5-0.9,0.9-1.6,1.2
		c-0.7,0.3-1.3,0.5-2,0.5c0,0-0.1,0-0.1,0c0-0.4-0.2-1.1-1-1.1c-0.4,0-0.7,0.3-1.3,1c-0.6,0.8-0.8,1.3-0.8,1.8
		c0,0.4,0.1,1.1,0.8,1.6c0.4,0.3,1,0.4,1.9,0.4c1.2,0,2.3-0.3,3.4-0.9c1.1-0.6,2-1.5,2.7-2.5c0.7-1.1,1.1-2.3,1.1-3.5
		C314.4,402.9,313.9,401.7,313,401z"/>
	<path id="XMLID_7266_" class="st1" d="M327.7,393.3c-0.3-0.5-0.7-0.7-1.1-0.7c-0.3,0-0.7,0.2-1,1c-1.6,0.5-2.8,0.8-3.6,1
		c0-1,0-1.9,0-2.7c0-1,0-1.9,0.1-2.5c0.1-1,0.1-1.2,0.1-1.4c0-0.4-0.1-0.8-0.3-1.1c-0.3-0.4-0.7-0.4-0.8-0.4c-0.7,0-1.2,0.5-1.5,1.3
		c-0.1,0.5-0.2,1-0.3,1.6c0,0.5-0.1,1.2-0.1,2.2c0,0.6,0,1.4,0.1,2.5c0,0.4,0,0.7,0,1c-0.4,0.1-1,0.3-1.8,0.5
		c-0.1,0-0.4,0.1-0.9,0.2c-0.6,0.1-0.9,0.2-1,0.2c-0.5,0-0.8,0.1-1.1,0.2c-0.4,0.2-0.7,0.8-0.7,1.5c0,0.6,0.2,1.1,0.6,1.4
		c0.3,0.3,0.6,0.4,1,0.4c0.2,0,0.5,0,1.8-0.4c0.7-0.2,1.4-0.4,2.1-0.6c0,0.8,0,1.7,0,2.5c0,1.2,0.1,2.4,0.1,3.3
		c0.1,1.1,0.1,2.1,0.2,3c0.1,1,0.2,1.6,0.3,2c0.1,0.3,0.2,0.6,0.4,0.8c0.2,0.2,0.5,0.4,0.7,0.4c0.3,0,0.7-0.2,1-0.5
		c0.5-0.5,0.6-1,0.6-1.4l0-0.2c0-0.1-0.1-0.5-0.3-1.3c-0.2-0.6-0.3-1.6-0.3-2.8c-0.1-1-0.1-2.1-0.1-3.4c0-1,0-2,0-2.9l1.1-0.2
		c0.2,0,1.1-0.3,2.7-0.6c0.8-0.1,1.3-0.3,1.7-0.6l0,0c0.5-0.4,0.7-1,0.7-1.7C328.2,394.3,328,393.8,327.7,393.3z"/>
</g>
<path id="XMLID_6872_" class="st1" d="M434.2,370c-1.6,2.6-3,5.3-4.8,7.8c-3.7,5.4-6.6,11.1-7.9,17.5c-0.2,1-0.4,2.1-0.4,3.1
	c-0.1,2,0.3,4.3-2.9,4c-2.8-0.3-4.8-2.3-4.3-4.9c0.5-2.5,1.3-5,2.3-7.4c1.8-4.4,3.8-8.8,5.9-13.5c-3.3-1.1-5.7,0.4-7.8,2.4
	c-1.2,1.1-1.9,2.8-3.1,3.8c-1,0.8-3,1.4-3.9,1c-1-0.5-2-2.9-1.5-3.6c1.5-2.5,3.2-5.9,5.6-6.6c7.1-2.3,14.5-3.5,21.7-5.2
	C433.4,368.9,433.8,369.4,434.2,370z"/>
<path id="XMLID_6856_" class="st1" d="M365.3,395.5c-1.4-0.2-2.2-0.4-3-0.5c-8.2-0.7-8.9-5.4-6.3-11.3c3.7-8.3,11.8-9.2,19-4.9
	c0.6,0.3,0.8,1.9,0.5,2.7c-1.6,5-3.5,9.9-5.2,14.9c-0.9,2.5-1.5,5.2-2.3,7.7c-0.6,1.9-1.8,4.1-3.9,2.6c-1.2-0.9-1.7-3.6-1.5-5.4
	C362.9,399.5,364.3,397.7,365.3,395.5z M369.4,380.2c-4,1-7.5,5.2-7.4,7.8c0,0.5,0.3,1.2,0.7,1.4c0.4,0.2,1.3,0,1.5-0.3
	C365.9,386.4,367.4,383.6,369.4,380.2z"/>
<path id="XMLID_4413_" class="st1" d="M394.3,378.7c-3.5,1.1-7,2.3-9.1,5.8c-1.1,1.8-2.6,4-4.5,2.2c-1.2-1.1-1.3-4-1.1-5.9
	c0.2-1.2,1.8-2.5,3.1-3.2c6.6-3.7,13.9-4.8,21.4-5c0.5,0,1.6,1.9,1.4,2.5c-0.8,1.8-2,3.4-3.2,5c-4.6,6.3-7.5,13.2-8.5,21
	c-0.3,1.9-0.2,4.4-3.2,3.9c-2.8-0.5-4.2-2.5-3.2-5.2c1.9-5.5,4.2-10.9,6.3-16.3c0.5-1.3,1.1-2.7,1.6-4
	C394.9,379.1,394.6,378.9,394.3,378.7z"/>
<path id="XMLID_4409_" class="st1" d="M339.3,383.4c1.4-3,10.9-7.2,13.3-5.7c0.6,0.4,0.8,2.3,0.5,3.3c-1.8,5.9-4,11.8-5.9,17.8
	c-0.8,2.6-1.2,5.3-2,7.8c-0.3,0.9-1,1.7-1.5,2.6c-0.8-0.7-2.2-1.3-2.4-2.2c-0.5-2.8-0.9-5.8-0.6-8.5c0.4-3.6,1.7-7.1,2.6-10.6
	c1-4,0.8-4.2-3.1-4C340,383.8,339.7,383.5,339.3,383.4z"/>
<circle id="XMLID_6873_" class="st1" cx="328.9" cy="407.3" r="2.6"/>
</svg>
